<svg width="54" height="54" viewBox="0 0 54 54" fill="none" xmlns="http://www.w3.org/2000/svg">
<circle cx="27" cy="27" r="27" fill="#FDFDFD"/>
<path d="M22 36.8408L22.4 36.4408C22.4599 36.3809 22.4898 36.351 22.5147 36.3253C24.4003 34.3849 24.4003 31.2966 22.5147 29.3563C22.4898 29.3306 22.4599 29.3006 22.4 29.2408L22 28.8408M32 36.8408L31.6 36.4408C31.5401 36.3809 31.5102 36.351 31.4853 36.3253C29.5997 34.3849 29.5997 31.2966 31.4853 29.3563C31.5102 29.3306 31.5401 29.3006 31.6 29.2408L32 28.8408M17.5091 29.9015C17.6662 29.8618 17.8306 29.8408 18 29.8408C19.1046 29.8408 20 30.7362 20 31.8408V33.8408C20 34.9454 19.1046 35.8408 18 35.8408C16.8954 35.8408 16 34.9454 16 33.8408V31.8408C16 30.9056 16.6419 30.1203 17.5091 29.9015ZM17.5091 29.9015L17.3966 29.1514C16.6184 23.9633 20.1014 19.0951 25.2629 18.1566C26.4115 17.9478 27.5885 17.9478 28.7371 18.1566C33.8986 19.0951 37.3816 23.9633 36.6034 29.1514L36.4909 29.9015M36.4909 29.9015C36.3338 29.8618 36.1694 29.8408 36 29.8408C34.8954 29.8408 34 30.7362 34 31.8408V33.8408C34 34.9454 34.8954 35.8408 36 35.8408C37.1046 35.8408 38 34.9454 38 33.8408V31.8408C38 30.9056 37.3581 30.1203 36.4909 29.9015Z" stroke="#002110" stroke-width="1.5" stroke-linecap="round"/>
</svg>
