<svg width="54" height="54" viewBox="0 0 54 54" fill="none" xmlns="http://www.w3.org/2000/svg">
<circle cx="27" cy="27" r="27" fill="#FDFDFD"/>
<path d="M24.3351 19.8023C24.7442 19.7375 25.0234 19.3533 24.9586 18.9442C24.8938 18.5351 24.5096 18.256 24.1005 18.3208C21.6401 18.7105 19.7104 20.6401 19.3208 23.1005C19.256 23.5096 19.5351 23.8938 19.9442 23.9586C20.3533 24.0234 20.7375 23.7443 20.8023 23.3351C21.0903 21.5166 22.5166 20.0903 24.3351 19.8023Z" fill="#002110"/>
<path fill-rule="evenodd" clip-rule="evenodd" d="M26 15.25C20.6152 15.25 16.25 19.6152 16.25 25C16.25 30.3848 20.6152 34.75 26 34.75C31.3848 34.75 35.75 30.3848 35.75 25C35.75 19.6152 31.3848 15.25 26 15.25ZM17.75 25C17.75 20.4437 21.4437 16.75 26 16.75C30.5563 16.75 34.25 20.4437 34.25 25C34.25 29.5563 30.5563 33.25 26 33.25C21.4437 33.25 17.75 29.5563 17.75 25Z" fill="#002110"/>
<path d="M34.5304 32.4698C34.2375 32.1769 33.7626 32.1769 33.4697 32.4698C33.1768 32.7626 33.1768 33.2375 33.4697 33.5304L37.4696 37.5304C37.7625 37.8233 38.2374 37.8233 38.5303 37.5304C38.8232 37.2375 38.8232 36.7626 38.5303 36.4697L34.5304 32.4698Z" fill="#002110"/>
</svg>
