<svg width="34" height="34" viewBox="0 0 34 34" fill="none" xmlns="http://www.w3.org/2000/svg">
<rect width="34" height="34" rx="8" fill="#D6F5F5"/>
<path d="M10.3335 12.833C10.3335 12.0564 10.3335 11.6682 10.4604 11.3619C10.6295 10.9535 10.954 10.629 11.3624 10.4599C11.6686 10.333 12.0569 10.333 12.8335 10.333C13.6101 10.333 13.9983 10.333 14.3046 10.4599C14.713 10.629 15.0375 10.9535 15.2066 11.3619C15.3335 11.6682 15.3335 12.0564 15.3335 12.833C15.3335 13.6096 15.3335 13.9979 15.2066 14.3041C15.0375 14.7125 14.713 15.037 14.3046 15.2061C13.9983 15.333 13.6101 15.333 12.8335 15.333C12.0569 15.333 11.6686 15.333 11.3624 15.2061C10.954 15.037 10.6295 14.7125 10.4604 14.3041C10.3335 13.9979 10.3335 13.6096 10.3335 12.833Z" stroke="#009A9A" stroke-width="1.5"/>
<path d="M18.6668 12.833C18.6668 12.0564 18.6668 11.6682 18.7937 11.3619C18.9629 10.9535 19.2873 10.629 19.6957 10.4599C20.002 10.333 20.3903 10.333 21.1668 10.333C21.9434 10.333 22.3317 10.333 22.638 10.4599C23.0463 10.629 23.3708 10.9535 23.54 11.3619C23.6668 11.6682 23.6668 12.0564 23.6668 12.833C23.6668 13.6096 23.6668 13.9979 23.54 14.3041C23.3708 14.7125 23.0463 15.037 22.638 15.2061C22.3317 15.333 21.9434 15.333 21.1668 15.333C20.3903 15.333 20.002 15.333 19.6957 15.2061C19.2873 15.037 18.9629 14.7125 18.7937 14.3041C18.6668 13.9979 18.6668 13.6096 18.6668 12.833Z" stroke="#009A9A" stroke-width="1.5"/>
<path d="M10.3335 21.1663C10.3335 20.3898 10.3335 20.0015 10.4604 19.6952C10.6295 19.2868 10.954 18.9624 11.3624 18.7932C11.6686 18.6663 12.0569 18.6663 12.8335 18.6663C13.6101 18.6663 13.9983 18.6663 14.3046 18.7932C14.713 18.9624 15.0375 19.2868 15.2066 19.6952C15.3335 20.0015 15.3335 20.3898 15.3335 21.1663C15.3335 21.9429 15.3335 22.3312 15.2066 22.6375C15.0375 23.0459 14.713 23.3703 14.3046 23.5395C13.9983 23.6663 13.6101 23.6663 12.8335 23.6663C12.0569 23.6663 11.6686 23.6663 11.3624 23.5395C10.954 23.3703 10.6295 23.0459 10.4604 22.6375C10.3335 22.3312 10.3335 21.9429 10.3335 21.1663Z" stroke="#009A9A" stroke-width="1.5"/>
<path d="M18.6668 21.1663C18.6668 20.3898 18.6668 20.0015 18.7937 19.6952C18.9629 19.2868 19.2873 18.9624 19.6957 18.7932C20.002 18.6663 20.3903 18.6663 21.1668 18.6663C21.9434 18.6663 22.3317 18.6663 22.638 18.7932C23.0463 18.9624 23.3708 19.2868 23.54 19.6952C23.6668 20.0015 23.6668 20.3898 23.6668 21.1663C23.6668 21.9429 23.6668 22.3312 23.54 22.6375C23.3708 23.0459 23.0463 23.3703 22.638 23.5395C22.3317 23.6663 21.9434 23.6663 21.1668 23.6663C20.3903 23.6663 20.002 23.6663 19.6957 23.5395C19.2873 23.3703 18.9629 23.0459 18.7937 22.6375C18.6668 22.3312 18.6668 21.9429 18.6668 21.1663Z" stroke="#009A9A" stroke-width="1.5"/>
</svg>
