<svg width="34" height="34" viewBox="0 0 34 34" fill="none" xmlns="http://www.w3.org/2000/svg">
<rect width="34" height="34" rx="8" fill="#F5EED6"/>
<g clip-path="url(#clip0_279_3229)">
<path d="M10.3672 12.9444C10.9789 12.8337 11.7913 12.8337 13.0187 12.8337H14.315C16.13 12.8337 17.0375 12.8337 17.7307 13.1917C18.3405 13.5066 18.8362 14.0092 19.1469 14.6273C19.5002 15.3299 19.5002 16.2498 19.5002 18.0895V19.8626C19.5002 20.0463 19.5002 20.1382 19.4965 20.2158C19.4379 21.4708 18.6881 22.5397 17.6236 23.0408M10.3672 12.9444C10.0743 12.9974 9.8274 13.0758 9.60297 13.1917C8.99319 13.5066 8.49742 14.0092 8.18672 14.6273C7.8335 15.3299 7.8335 16.2498 7.8335 18.0895V20.8675C7.8335 22.236 8.92798 23.3454 10.2781 23.3454H10.6681C11.1731 23.3454 11.5184 23.8624 11.3308 24.3376C11.0661 25.0085 11.8284 25.6151 12.4084 25.1951L14.1006 23.9699C14.1178 23.9574 14.1265 23.9512 14.135 23.9451C14.6755 23.559 15.3197 23.3498 15.9809 23.3455C15.9913 23.3454 16.0051 23.3454 16.0328 23.3454C16.235 23.3454 16.3361 23.3454 16.4127 23.3417C16.8439 23.321 17.2528 23.2154 17.6236 23.0408M10.3672 12.9444C10.4136 12.0684 10.5243 11.4589 10.7876 10.942C11.1871 10.158 11.8245 9.5206 12.6085 9.12113C13.4998 8.66699 14.6666 8.66699 17.0002 8.66699H18.6668C21.0004 8.66699 22.1672 8.66699 23.0585 9.12113C23.8425 9.5206 24.4799 10.158 24.8794 10.942C25.3335 11.8333 25.3335 13.0001 25.3335 15.3337V18.8573C25.3335 20.5931 23.9263 22.0003 22.1904 22.0003H21.689C21.0397 22.0003 20.5958 22.6561 20.8369 23.2589C21.1773 24.1099 20.1972 24.8792 19.4514 24.3465L17.6236 23.0408" stroke="#EDB803" stroke-width="1.5"/>
<path d="M12.0002 18.6673C12.0002 19.1276 11.6271 19.5007 11.1668 19.5007C10.7066 19.5007 10.3335 19.1276 10.3335 18.6673C10.3335 18.2071 10.7066 17.834 11.1668 17.834C11.6271 17.834 12.0002 18.2071 12.0002 18.6673Z" fill="#EDB803"/>
<path d="M14.5002 18.6673C14.5002 19.1276 14.1271 19.5007 13.6668 19.5007C13.2066 19.5007 12.8335 19.1276 12.8335 18.6673C12.8335 18.2071 13.2066 17.834 13.6668 17.834C14.1271 17.834 14.5002 18.2071 14.5002 18.6673Z" fill="#EDB803"/>
<path d="M17.0002 18.6673C17.0002 19.1276 16.6271 19.5007 16.1668 19.5007C15.7066 19.5007 15.3335 19.1276 15.3335 18.6673C15.3335 18.2071 15.7066 17.834 16.1668 17.834C16.6271 17.834 17.0002 18.2071 17.0002 18.6673Z" fill="#EDB803"/>
</g>
<defs>
<clipPath id="clip0_279_3229">
<rect width="20" height="20" fill="white" transform="translate(7 7)"/>
</clipPath>
</defs>
</svg>
