<svg width="34" height="34" viewBox="0 0 34 34" fill="none" xmlns="http://www.w3.org/2000/svg">
<rect width="34" height="34" rx="8" fill="#DCF5D6"/>
<path d="M11.1073 13.6074L11.6376 13.0771L11.1073 13.6074ZM9.49984 12L10.0302 11.4697L10.0302 11.4697L9.49984 12ZM10.3841 23.7042L10.8249 23.0975L10.8249 23.0975L10.3841 23.7042ZM9.46227 22.7824L8.8555 23.2233L8.8555 23.2233L9.46227 22.7824ZM24.5374 22.7824L23.9306 22.3416L23.9306 22.3416L24.5374 22.7824ZM23.6156 23.7042L23.1748 23.0975L23.1748 23.0975L23.6156 23.7042ZM10.3841 10.2958L9.94323 9.689L9.94323 9.689L10.3841 10.2958ZM9.46227 11.2176L8.8555 10.7767L8.8555 10.7767L9.46227 11.2176ZM21.6855 15.8534C21.9845 15.5668 21.9946 15.092 21.7079 14.793C21.4213 14.494 20.9465 14.4839 20.6475 14.7705L21.6855 15.8534ZM26.0768 15.3027C26.0717 14.8885 25.7318 14.5569 25.3176 14.562C24.9034 14.5672 24.5718 14.9071 24.577 15.3213L26.0768 15.3027ZM19.4908 10.256C19.905 10.2609 20.2448 9.92918 20.2498 9.51499C20.2547 9.10081 19.923 8.76102 19.5088 8.75606L19.4908 10.256ZM9.18403 11.6842L8.50838 11.3586L9.18403 11.6842ZM11.6376 13.0771L10.0302 11.4697L8.96951 12.5303L10.577 14.1378L11.6376 13.0771ZM10.577 14.1378C11.9508 15.5117 13.0335 16.5966 13.9931 17.3287C14.97 18.0741 15.907 18.5241 16.9998 18.5241V17.0241C16.3668 17.0241 15.7464 16.7797 14.903 16.1362C14.0422 15.4794 13.0415 14.481 11.6376 13.0771L10.577 14.1378ZM16.1665 10.25H17.8332V8.75H16.1665V10.25ZM17.8332 23.75H16.1665V25.25H17.8332V23.75ZM16.1665 23.75C14.5874 23.75 13.4633 23.749 12.595 23.6549C11.7407 23.5623 11.2234 23.387 10.8249 23.0975L9.94323 24.311C10.64 24.8173 11.4515 25.0398 12.4334 25.1462C13.4013 25.251 14.6208 25.25 16.1665 25.25V23.75ZM7.9165 17C7.9165 18.5457 7.91547 19.7652 8.02034 20.7331C8.12672 21.715 8.34925 22.5265 8.8555 23.2233L10.069 22.3416C9.77952 21.9431 9.60417 21.4258 9.51161 20.5715C9.41753 19.7032 9.4165 18.5791 9.4165 17H7.9165ZM10.8249 23.0975C10.5348 22.8867 10.2798 22.6317 10.069 22.3416L8.8555 23.2233C9.15876 23.6407 9.52583 24.0077 9.94323 24.311L10.8249 23.0975ZM24.5832 17C24.5832 18.5791 24.5821 19.7032 24.4881 20.5715C24.3955 21.4258 24.2202 21.9431 23.9306 22.3416L25.1442 23.2233C25.6504 22.5265 25.873 21.715 25.9793 20.7331C26.0842 19.7652 26.0832 18.5457 26.0832 17H24.5832ZM17.8332 25.25C19.3789 25.25 20.5984 25.251 21.5662 25.1462C22.5482 25.0398 23.3597 24.8173 24.0564 24.311L23.1748 23.0975C22.7763 23.387 22.259 23.5623 21.4047 23.6549C20.5363 23.749 19.4123 23.75 17.8332 23.75V25.25ZM23.9306 22.3416C23.7199 22.6317 23.4648 22.8867 23.1748 23.0975L24.0564 24.311C24.4738 24.0077 24.8409 23.6407 25.1442 23.2233L23.9306 22.3416ZM16.1665 8.75C14.6208 8.75 13.4013 8.74897 12.4334 8.85383C11.4515 8.96022 10.64 9.18275 9.94323 9.689L10.8249 10.9025C11.2234 10.613 11.7407 10.4377 12.595 10.3451C13.4633 10.251 14.5874 10.25 16.1665 10.25V8.75ZM9.94323 9.689C9.52583 9.99226 9.15876 10.3593 8.8555 10.7767L10.069 11.6584C10.2798 11.3683 10.5348 11.1133 10.8249 10.9025L9.94323 9.689ZM20.6475 14.7705C18.912 16.4341 17.9877 17.0241 16.9998 17.0241V18.5241C18.6654 18.5241 19.9962 17.4727 21.6855 15.8534L20.6475 14.7705ZM26.0832 17C26.0832 16.3796 26.0832 15.8148 26.0768 15.3027L24.577 15.3213C24.5832 15.8223 24.5832 16.3771 24.5832 17H26.0832ZM17.8332 10.25C18.4473 10.25 18.9953 10.25 19.4908 10.256L19.5088 8.75606C19.0025 8.74999 18.4449 8.75 17.8332 8.75V10.25ZM24.5832 11.1667C24.5832 11.6729 24.1728 12.0833 23.6665 12.0833V13.5833C25.0012 13.5833 26.0832 12.5014 26.0832 11.1667H24.5832ZM23.6665 12.0833C23.1602 12.0833 22.7498 11.6729 22.7498 11.1667H21.2498C21.2498 12.5014 22.3318 13.5833 23.6665 13.5833V12.0833ZM22.7498 11.1667C22.7498 10.6604 23.1602 10.25 23.6665 10.25V8.75C22.3318 8.75 21.2498 9.83198 21.2498 11.1667H22.7498ZM23.6665 10.25C24.1728 10.25 24.5832 10.6604 24.5832 11.1667H26.0832C26.0832 9.83198 25.0012 8.75 23.6665 8.75V10.25ZM9.4165 17C9.4165 15.6356 9.41699 14.6077 9.47906 13.7861C9.541 12.9663 9.66063 12.4229 9.85968 12.0098L8.50838 11.3586C8.18991 12.0195 8.05077 12.7804 7.98333 13.6731C7.91602 14.5641 7.9165 15.6572 7.9165 17H9.4165ZM9.85968 12.0098C9.92051 11.8835 9.98974 11.7675 10.069 11.6584L8.8555 10.7767C8.72216 10.9603 8.60716 11.1536 8.50838 11.3586L9.85968 12.0098ZM10.0302 11.4697L9.71436 11.1539L8.6537 12.2145L8.96951 12.5303L10.0302 11.4697Z" fill="#209B03"/>
</svg>
