<svg width="54" height="54" viewBox="0 0 54 54" fill="none" xmlns="http://www.w3.org/2000/svg">
<circle cx="27" cy="27" r="27" fill="#FDFDFD"/>
<path d="M30 32H26M23 32H21M17.011 25C17 25.577 17 26.2365 17 27C17 29.8003 17 31.2004 17.545 32.27C18.0243 33.2108 18.7892 33.9757 19.73 34.455C20.7996 35 22.1997 35 25 35H29C31.8003 35 33.2004 35 34.27 34.455C35.2108 33.9757 35.9757 33.2108 36.455 32.27C37 31.2004 37 29.8003 37 27C37 26.2365 37 25.577 36.989 25M17.011 25C17.0405 23.4608 17.1486 22.508 17.545 21.73C18.0243 20.7892 18.7892 20.0243 19.73 19.545C20.7996 19 22.1997 19 25 19H29C31.8003 19 33.2004 19 34.27 19.545C35.2108 20.0243 35.9757 20.7892 36.455 21.73C36.8514 22.508 36.9595 23.4608 36.989 25M17.011 25H36.989" stroke="#002110" stroke-width="1.5" stroke-linecap="round"/>
</svg>
