<svg width="54" height="54" viewBox="0 0 54 54" fill="none" xmlns="http://www.w3.org/2000/svg">
<circle cx="27" cy="27" r="27" fill="#FDFDFD"/>
<path d="M37.8975 20.6249C37.7895 20.5575 37.6662 20.5187 37.5391 20.5121C37.412 20.5056 37.2853 20.5315 37.1709 20.5874C33.1463 22.5561 30.2719 21.6336 27.2334 20.6605C24.0459 19.6396 20.7413 18.5849 16.1756 20.8142C16.0481 20.8754 15.9404 20.9715 15.8651 21.0912C15.7898 21.211 15.7499 21.3496 15.75 21.4911V32.7346C15.75 32.8618 15.7823 32.987 15.844 33.0983C15.9057 33.2096 15.9947 33.3033 16.1027 33.3708C16.2106 33.4382 16.3339 33.477 16.461 33.4836C16.588 33.4903 16.7147 33.4645 16.8291 33.4086C20.8538 31.4399 23.7281 32.3624 26.7712 33.3355C28.575 33.9121 30.4125 34.4999 32.49 34.4999C34.0922 34.4999 35.8397 34.1511 37.8253 33.1817C37.9514 33.1202 38.0577 33.0244 38.1322 32.9054C38.2066 32.7865 38.2461 32.649 38.2463 32.5086V21.2652C38.2474 21.1376 38.2159 21.0118 38.1549 20.8998C38.0939 20.7878 38.0053 20.6931 37.8975 20.6249ZM36.75 32.0314C32.9438 33.7349 30.1641 32.8461 27.2288 31.9077C25.425 31.3311 23.5875 30.7433 21.51 30.7433C20.0504 30.7504 18.6057 31.0368 17.2538 31.5871V21.9683C21.06 20.2649 23.8397 21.1536 26.775 22.0921C29.7103 23.0305 32.7319 23.9999 36.75 22.4146V32.0314ZM27 23.9999C26.4067 23.9999 25.8266 24.1758 25.3333 24.5055C24.8399 24.8351 24.4554 25.3036 24.2284 25.8518C24.0013 26.4 23.9419 27.0032 24.0576 27.5851C24.1734 28.1671 24.4591 28.7016 24.8787 29.1212C25.2982 29.5407 25.8328 29.8265 26.4147 29.9422C26.9967 30.058 27.5999 29.9986 28.148 29.7715C28.6962 29.5444 29.1648 29.1599 29.4944 28.6666C29.8241 28.1732 30 27.5932 30 26.9999C30 26.2042 29.6839 25.4412 29.1213 24.8786C28.5587 24.3159 27.7956 23.9999 27 23.9999ZM27 28.4999C26.7033 28.4999 26.4133 28.4119 26.1666 28.2471C25.92 28.0823 25.7277 27.848 25.6142 27.5739C25.5006 27.2998 25.4709 26.9982 25.5288 26.7072C25.5867 26.4163 25.7296 26.149 25.9393 25.9392C26.1491 25.7294 26.4164 25.5866 26.7074 25.5287C26.9983 25.4708 27.2999 25.5005 27.574 25.6141C27.8481 25.7276 28.0824 25.9198 28.2472 26.1665C28.412 26.4132 28.5 26.7032 28.5 26.9999C28.5 27.3977 28.342 27.7792 28.0607 28.0605C27.7794 28.3418 27.3978 28.4999 27 28.4999ZM20.25 23.9999V28.4999C20.25 28.6988 20.171 28.8896 20.0303 29.0302C19.8897 29.1709 19.6989 29.2499 19.5 29.2499C19.3011 29.2499 19.1103 29.1709 18.9697 29.0302C18.829 28.8896 18.75 28.6988 18.75 28.4999V23.9999C18.75 23.801 18.829 23.6102 18.9697 23.4695C19.1103 23.3289 19.3011 23.2499 19.5 23.2499C19.6989 23.2499 19.8897 23.3289 20.0303 23.4695C20.171 23.6102 20.25 23.801 20.25 23.9999ZM33.75 29.9999V25.4999C33.75 25.301 33.829 25.1102 33.9697 24.9695C34.1103 24.8289 34.3011 24.7499 34.5 24.7499C34.6989 24.7499 34.8897 24.8289 35.0303 24.9695C35.171 25.1102 35.25 25.301 35.25 25.4999V29.9999C35.25 30.1988 35.171 30.3896 35.0303 30.5302C34.8897 30.6709 34.6989 30.7499 34.5 30.7499C34.3011 30.7499 34.1103 30.6709 33.9697 30.5302C33.829 30.3896 33.75 30.1988 33.75 29.9999Z" fill="black"/>
</svg>
