<svg width="34" height="34" viewBox="0 0 34 34" fill="none" xmlns="http://www.w3.org/2000/svg">
<rect width="34" height="34" rx="8" fill="#FADDCC" fill-opacity="0.52"/>
<path d="M27.8975 10.6249C27.7895 10.5575 27.6662 10.5187 27.5391 10.5121C27.412 10.5056 27.2853 10.5315 27.1709 10.5874C23.1463 12.5561 20.2719 11.6336 17.2334 10.6605C14.0459 9.63956 10.7413 8.58487 6.17563 10.8142C6.04806 10.8754 5.9404 10.9715 5.86509 11.0912C5.78978 11.211 5.74988 11.3496 5.75 11.4911V22.7346C5.74998 22.8618 5.78234 22.987 5.84404 23.0983C5.90573 23.2096 5.99473 23.3033 6.10265 23.3708C6.21058 23.4382 6.33388 23.477 6.46096 23.4836C6.58804 23.4903 6.71471 23.4645 6.82906 23.4086C10.8538 21.4399 13.7281 22.3624 16.7712 23.3355C18.575 23.9121 20.4125 24.4999 22.49 24.4999C24.0922 24.4999 25.8397 24.1511 27.8253 23.1817C27.9514 23.1202 28.0577 23.0244 28.1322 22.9054C28.2066 22.7865 28.2461 22.649 28.2463 22.5086V11.2652C28.2474 11.1376 28.2159 11.0118 28.1549 10.8998C28.0939 10.7878 28.0053 10.6931 27.8975 10.6249ZM26.75 22.0314C22.9438 23.7349 20.1641 22.8461 17.2288 21.9077C15.425 21.3311 13.5875 20.7433 11.51 20.7433C10.0504 20.7504 8.60567 21.0368 7.25375 21.5871V11.9683C11.06 10.2649 13.8397 11.1536 16.775 12.0921C19.7103 13.0305 22.7319 13.9999 26.75 12.4146V22.0314ZM17 13.9999C16.4067 13.9999 15.8266 14.1758 15.3333 14.5055C14.8399 14.8351 14.4554 15.3036 14.2284 15.8518C14.0013 16.4 13.9419 17.0032 14.0576 17.5851C14.1734 18.1671 14.4591 18.7016 14.8787 19.1212C15.2982 19.5407 15.8328 19.8265 16.4147 19.9422C16.9967 20.058 17.5999 19.9986 18.148 19.7715C18.6962 19.5444 19.1648 19.1599 19.4944 18.6666C19.8241 18.1732 20 17.5932 20 16.9999C20 16.2042 19.6839 15.4412 19.1213 14.8786C18.5587 14.3159 17.7956 13.9999 17 13.9999ZM17 18.4999C16.7033 18.4999 16.4133 18.4119 16.1666 18.2471C15.92 18.0823 15.7277 17.848 15.6142 17.5739C15.5006 17.2998 15.4709 16.9982 15.5288 16.7072C15.5867 16.4163 15.7296 16.149 15.9393 15.9392C16.1491 15.7294 16.4164 15.5866 16.7074 15.5287C16.9983 15.4708 17.2999 15.5005 17.574 15.6141C17.8481 15.7276 18.0824 15.9198 18.2472 16.1665C18.412 16.4132 18.5 16.7032 18.5 16.9999C18.5 17.3977 18.342 17.7792 18.0607 18.0605C17.7794 18.3418 17.3978 18.4999 17 18.4999ZM10.25 13.9999V18.4999C10.25 18.6988 10.171 18.8896 10.0303 19.0302C9.88968 19.1709 9.69891 19.2499 9.5 19.2499C9.30109 19.2499 9.11032 19.1709 8.96967 19.0302C8.82902 18.8896 8.75 18.6988 8.75 18.4999V13.9999C8.75 13.801 8.82902 13.6102 8.96967 13.4695C9.11032 13.3289 9.30109 13.2499 9.5 13.2499C9.69891 13.2499 9.88968 13.3289 10.0303 13.4695C10.171 13.6102 10.25 13.801 10.25 13.9999ZM23.75 19.9999V15.4999C23.75 15.301 23.829 15.1102 23.9697 14.9695C24.1103 14.8289 24.3011 14.7499 24.5 14.7499C24.6989 14.7499 24.8897 14.8289 25.0303 14.9695C25.171 15.1102 25.25 15.301 25.25 15.4999V19.9999C25.25 20.1988 25.171 20.3896 25.0303 20.5302C24.8897 20.6709 24.6989 20.7499 24.5 20.7499C24.3011 20.7499 24.1103 20.6709 23.9697 20.5302C23.829 20.3896 23.75 20.1988 23.75 19.9999Z" fill="#EA5806"/>
</svg>
