<svg width="34" height="34" viewBox="0 0 34 34" fill="none" xmlns="http://www.w3.org/2000/svg">
<rect width="34" height="34" rx="8" fill="#F5E9D6"/>
<path d="M26.1668 17.75C26.581 17.75 26.9168 17.4142 26.9168 17C26.9168 16.5858 26.581 16.25 26.1668 16.25V17.75ZM7.8335 16.25C7.41928 16.25 7.0835 16.5858 7.0835 17C7.0835 17.4142 7.41928 17.75 7.8335 17.75V16.25ZM9.50016 20.3333L8.75016 20.3333V20.3333L9.50016 20.3333ZM10.2502 19.5C10.2502 19.0858 9.91438 18.75 9.50016 18.75C9.08595 18.75 8.75016 19.0858 8.75016 19.5H10.2502ZM14.5002 25.25C14.9144 25.25 15.2502 24.9142 15.2502 24.5C15.2502 24.0858 14.9144 23.75 14.5002 23.75V25.25ZM13.6668 24.5L13.6668 23.75H13.6668L13.6668 24.5ZM14.5002 10.25C14.9144 10.25 15.2502 9.91421 15.2502 9.5C15.2502 9.08579 14.9144 8.75 14.5002 8.75V10.25ZM8.75016 14.5C8.75016 14.9142 9.08595 15.25 9.50016 15.25C9.91438 15.25 10.2502 14.9142 10.2502 14.5H8.75016ZM9.50016 13.6667H8.75016H9.50016ZM24.5002 13.6667L23.7502 13.6667V13.6667H24.5002ZM23.7502 14.5C23.7502 14.9142 24.0859 15.25 24.5002 15.25C24.9144 15.25 25.2502 14.9142 25.2502 14.5H23.7502ZM19.5002 8.75C19.0859 8.75 18.7502 9.08579 18.7502 9.5C18.7502 9.91421 19.0859 10.25 19.5002 10.25L19.5002 8.75ZM20.3335 9.5L20.3335 8.75L20.3335 9.5ZM20.3335 24.5L20.3335 23.75H20.3335V24.5ZM19.5002 23.75C19.0859 23.75 18.7502 24.0858 18.7502 24.5C18.7502 24.9142 19.0859 25.25 19.5002 25.25V23.75ZM25.2502 19.5C25.2502 19.0858 24.9144 18.75 24.5002 18.75C24.0859 18.75 23.7502 19.0858 23.7502 19.5H25.2502ZM24.5002 20.3333L25.2502 20.3333V20.3333H24.5002ZM26.1668 16.25H7.8335V17.75H26.1668V16.25ZM10.2502 20.3333V19.5H8.75016V20.3333H10.2502ZM14.5002 23.75H13.6668V25.25H14.5002V23.75ZM8.75016 20.3333C8.75016 23.0487 10.9514 25.25 13.6668 25.25L13.6668 23.75C11.7799 23.75 10.2502 22.2203 10.2502 20.3333L8.75016 20.3333ZM13.6668 10.25H14.5002V8.75H13.6668V10.25ZM10.2502 14.5V13.6667H8.75016V14.5H10.2502ZM13.6668 8.75C10.9514 8.75 8.75016 10.9513 8.75016 13.6667H10.2502C10.2502 11.7797 11.7799 10.25 13.6668 10.25V8.75ZM23.7502 13.6667V14.5H25.2502V13.6667H23.7502ZM19.5002 10.25L20.3335 10.25L20.3335 8.75L19.5002 8.75L19.5002 10.25ZM25.2502 13.6667C25.2502 10.9513 23.0489 8.75 20.3335 8.75L20.3335 10.25C22.2205 10.25 23.7502 11.7797 23.7502 13.6667L25.2502 13.6667ZM20.3335 23.75H19.5002V25.25H20.3335V23.75ZM23.7502 19.5V20.3333H25.2502V19.5H23.7502ZM20.3335 25.25C23.0489 25.25 25.2502 23.0487 25.2502 20.3333L23.7502 20.3333C23.7502 22.2203 22.2205 23.75 20.3335 23.75L20.3335 25.25Z" fill="#ED970E"/>
</svg>
