<svg width="34" height="34" viewBox="0 0 34 34" fill="none" xmlns="http://www.w3.org/2000/svg">
<rect width="34" height="34" rx="8" fill="#D6DFF5"/>
<path d="M8.6665 14.0367C8.6665 11.9912 10.3247 10.333 12.3702 10.333H21.6295C23.675 10.333 25.3332 11.9912 25.3332 14.0367C25.3332 14.4895 25.0735 14.9021 24.6654 15.098L24.2592 15.2929C22.8273 15.9803 22.8273 18.0191 24.2592 18.7064L24.6654 18.9014C25.0735 19.0973 25.3332 19.5099 25.3332 19.9626C25.3332 22.0081 23.675 23.6663 21.6295 23.6663H12.3702C10.3247 23.6663 8.6665 22.0081 8.6665 19.9626C8.6665 19.5099 8.92614 19.0973 9.3343 18.9014L9.74044 18.7064C11.1724 18.0191 11.1724 15.9803 9.74044 15.2929L9.3343 15.098C8.92614 14.9021 8.6665 14.4895 8.6665 14.0367Z" stroke="#3D73F7" stroke-width="1.5"/>
<path d="M19.4165 10.333C19.4165 9.91879 19.0807 9.58301 18.6665 9.58301C18.2523 9.58301 17.9165 9.91879 17.9165 10.333L19.4165 10.333ZM17.9165 23.6663C17.9165 24.0806 18.2523 24.4163 18.6665 24.4163C19.0807 24.4163 19.4165 24.0806 19.4165 23.6663L17.9165 23.6663ZM17.9165 11.2219C17.9165 11.6361 18.2523 11.9719 18.6665 11.9719C19.0807 11.9719 19.4165 11.6361 19.4165 11.2219L17.9165 11.2219ZM19.4165 13.8886C19.4165 13.4743 19.0807 13.1386 18.6665 13.1386C18.2523 13.1386 17.9165 13.4743 17.9165 13.8886L19.4165 13.8886ZM17.9165 15.6663C17.9165 16.0806 18.2523 16.4163 18.6665 16.4163C19.0807 16.4163 19.4165 16.0806 19.4165 15.6663L17.9165 15.6663ZM19.4165 18.333C19.4165 17.9188 19.0807 17.583 18.6665 17.583C18.2523 17.583 17.9165 17.9188 17.9165 18.333L19.4165 18.333ZM17.9165 20.1108C17.9165 20.525 18.2523 20.8608 18.6665 20.8608C19.0807 20.8608 19.4165 20.525 19.4165 20.1108L17.9165 20.1108ZM19.4165 22.7775C19.4165 22.3632 19.0807 22.0275 18.6665 22.0275C18.2523 22.0275 17.9165 22.3632 17.9165 22.7775L19.4165 22.7775ZM17.9165 10.333L17.9165 11.2219L19.4165 11.2219L19.4165 10.333L17.9165 10.333ZM17.9165 13.8886L17.9165 15.6663L19.4165 15.6663L19.4165 13.8886L17.9165 13.8886ZM17.9165 18.333L17.9165 20.1108L19.4165 20.1108L19.4165 18.333L17.9165 18.333ZM17.9165 22.7775L17.9165 23.6663L19.4165 23.6663L19.4165 22.7775L17.9165 22.7775Z" fill="#3D73F7"/>
</svg>
