<svg width="34" height="34" viewBox="0 0 34 34" fill="none" xmlns="http://www.w3.org/2000/svg">
<rect width="34" height="34" rx="8" fill="#D6D9F5"/>
<path d="M14.5002 14.4997H11.1668M20.9952 13.4313C21.1668 14.2355 21.1668 15.3127 21.1668 16.9997C21.1668 18.6864 21.1668 19.7635 20.9953 20.5676M20.9952 13.4313C20.9295 13.1231 20.8385 12.855 20.7127 12.608C20.3132 11.824 19.6758 11.1866 18.8918 10.7871C18.0005 10.333 16.8337 10.333 14.5002 10.333C12.1666 10.333 10.9998 10.333 10.1085 10.7871C9.32453 11.1866 8.68711 11.824 8.28764 12.608C7.8335 13.4993 7.8335 14.6661 7.8335 16.9997C7.8335 19.3332 7.8335 20.5 8.28764 21.3913C8.68711 22.1753 9.32453 22.8127 10.1085 23.2122C10.9998 23.6663 12.1666 23.6663 14.5002 23.6663C16.8337 23.6663 18.0005 23.6663 18.8918 23.2122C19.6758 22.8127 20.3132 22.1753 20.7127 21.3913C20.8386 21.1442 20.9296 20.876 20.9953 20.5676M20.9952 13.4313L21.1668 13.3511L21.4988 13.2061C23.6054 12.2856 24.6586 11.8254 25.4127 12.3188C26.1668 12.8122 26.1668 13.9617 26.1668 16.2605V17.7388C26.1668 20.0377 26.1668 21.1871 25.4127 21.6805C24.6586 22.174 23.6054 21.7137 21.4988 20.7933L21.1668 20.6482L20.9953 20.5676" stroke="#2136F6" stroke-width="1.5" stroke-linecap="round"/>
</svg>
